<svg version="1.1" id="Logo" xmlns="http://www.w3.org/2000/svg" xmlns:xlink="http://www.w3.org/1999/xlink" x="0" y="0" viewBox="0 0 1028.8 300" enable-background="new 0 0 1028.8 300" xml:space="preserve"><g id="Tubes"><rect x="200" y="25" fill="#C32026" width="148.6" height="60"/><path fill="#FFF" d="M348.6,84.2c-3.2,0-6.8-12-6.8-29.2s3.6-29.2,6.8-29.2c3.2,0,6.8,12,6.8,29.2S351.8,84.2,348.6,84.2z"/><path fill="#C32026" d="M348.6,26.7c0.5,0,2.2,1.4,3.8,7.5c1.4,5.5,2.2,12.9,2.2,20.8s-0.8,15.3-2.2,20.8 c-1.6,6.2-3.3,7.5-3.8,7.5s-2.2-1.4-3.8-7.5c-1.4-5.5-2.2-12.9-2.2-20.8c0-7.9,0.8-15.3,2.2-20.8C346.3,28,348.1,26.7,348.6,26.7 M348.6,25c-4.2,0-7.7,13.4-7.7,30s3.4,30,7.7,30c4.2,0,7.7-13.4,7.7-30S352.8,25,348.6,25L348.6,25z"/><g><rect x="51.4" y="215" fill="#C32026" width="148.6" height="60"/><path fill="#C32026" d="M51.4,274.2c-3.2,0-6.8-12-6.8-29.2s3.6-29.2,6.8-29.2s6.8,12,6.8,29.2S54.7,274.2,51.4,274.2z"/><path fill="#C22227" d="M51.4,216.7c0.5,0,2.2,1.4,3.8,7.5c1.4,5.5,2.2,12.9,2.2,20.8s-0.8,15.3-2.2,20.8 c-1.6,6.2-3.3,7.5-3.8,7.5s-2.2-1.4-3.8-7.5c-1.4-5.5-2.2-12.9-2.2-20.8s0.8-15.3,2.2-20.8C49.2,218,50.9,216.7,51.4,216.7 M51.4,215c-4.2,0-7.7,13.4-7.7,30s3.4,30,7.7,30s7.7-13.4,7.7-30S55.7,215,51.4,215L51.4,215z"/></g></g><g id="Graphic"><circle fill="#C32026" cx="200" cy="150" r="125"/><g id="Swirl_1_"><path fill="#FFF" d="M89.7,204.7C65.1,51.7,236.9,71.6,220.6,140c-10,42.1-48.2,6.2-58.2,33.6c-8.5,23.6,15,48.1,48.6,48.1 c67.2,0,159-126.9,1-191.1c166,48.1,100.3,230.2-4.5,230.2c-64.2,0-107.8-50.6-107.8-91.3C99.7,142,85.2,161.5,89.7,204.7z"/><path fill="#C22227" d="M91.8,152.9c23-75,100-58.2,97.9-40.3c-1.4,12.3-48,4.6-55.6,50c-6,35.7,18.9,85.2,101.5,78.6 c-57.1,10.7-96.9-11.2-108.7-49.5c-17.3-65.8,37.8-72.9,34.7-83.7C158.2,96.8,109.2,107,91.8,152.9z"/><path fill="#FFF" d="M290.3,150.4c-23,75-100,58.2-97.9,40.3c1.4-12.3,48-4.6,55.6-50c6-35.7-18.9-85.2-101.5-78.6 c57.1-10.7,96.9,11.2,108.7,49.5c17.3,65.8-37.8,72.9-34.7,83.7C224,206.5,273,196.3,290.3,150.4z"/></g></g><g id="Barroso_Pumps"><rect x="373.2" y="146.9" fill="#C22227" width="611.9" height="128"/><g id="Pumps"><path fill="#FFF" d="M907.4,235.2c7.3,6.2,15.9,9.3,25.9,9.4c11.8-0.2,17.8-4.5,18-13.1c0.1-7-3.9-11.2-11.9-12.7 c-3.7-0.5-7.7-1.1-12.1-1.7c-7.8-1.3-13.8-4.3-17.9-9c-4.2-4.8-6.3-10.6-6.3-17.4c0-8.2,2.6-14.9,7.9-19.9 c5.1-5,12.4-7.5,21.8-7.6c11.3,0.3,21.2,3.5,29.5,9.7l-7.7,11.7c-6.8-4.7-14.4-7.1-22.6-7.2c-4.3,0-7.8,1.1-10.6,3.3 c-3,2.3-4.5,5.7-4.6,10.2c0,2.7,1,5.2,3.1,7.4c2,2.2,5.3,3.8,9.8,4.6c2.5,0.4,5.9,0.9,10.3,1.5c8.5,1.2,14.9,4.4,18.9,9.5 c4,5,6.1,10.9,6.1,17.6c-0.5,18-11.1,27.1-32,27.4c-13.5,0-25.1-4.3-34.8-12.8L907.4,235.2z"/><path fill="#FFF" d="M391.7,164h33c3.6,0,7,0.3,10.4,1c3.3,0.9,6.7,2.8,10.1,5.5c2.9,2.1,5.2,5.1,7,9c1.9,3.8,2.8,8.3,2.8,13.4 c0,7-2.4,13.3-7.1,19c-4.9,6-12,9.1-21.4,9.3h-21V258h-13.8V164z M405.5,207.9H426c5.1-0.1,9-1.7,11.6-4.9 c2.5-3.1,3.7-6.6,3.7-10.4c0-3.2-0.5-5.8-1.5-8c-1-1.9-2.5-3.5-4.4-4.6c-2.8-1.9-6.1-2.7-9.9-2.7h-20V207.9z"/><path fill="#FFF" d="M512,164h13.8v60.7c0.1,6.4,1.9,11.3,5.4,14.7c3.4,3.5,7.8,5.3,13.2,5.3c5.4,0,9.8-1.8,13.3-5.3 c3.4-3.4,5.2-8.2,5.3-14.7V164h13.8v62.2c-0.2,9.9-3.3,17.7-9.3,23.6c-6.1,6-13.8,9-23.1,9.1c-9.1-0.1-16.8-3.1-22.9-9.1 c-6.3-5.8-9.4-13.6-9.5-23.5V164z"/><path fill="#FFF" d="M640.6,164h13l26.1,61.3l25.6-61.3h13V258h-13.8v-58.7h-0.3l-19.1,45.2h-11.5l-19.1-45.2h-0.3V258h-13.8 V164z"/><path fill="#FFF" d="M784.3,164h33c3.6,0,7,0.3,10.4,1c3.3,0.9,6.7,2.8,10.1,5.5c2.9,2.1,5.2,5.1,7,9c1.9,3.8,2.8,8.3,2.8,13.4 c0,7-2.4,13.3-7.1,19c-4.9,6-12,9.1-21.4,9.3h-21V258h-13.8V164z M798.1,207.9h20.5c5.1-0.1,9-1.7,11.6-4.9 c2.5-3.1,3.7-6.6,3.7-10.4c0-3.2-0.5-5.8-1.5-8c-1-1.9-2.5-3.5-4.4-4.6c-2.8-1.9-6.1-2.7-9.9-2.7h-20V207.9z"/></g><g id="Barroso_4_"><path fill="#C22227" stroke="#C22227" stroke-width="7.342" stroke-miterlimit="10" d="M377.2,27.2h39.2 c10,0.1,17.4,2.7,22.4,7.7c5,5.1,7.6,11.9,7.6,20.3c0.1,4.3-0.9,8.4-3,12.3c-1.1,1.9-2.6,3.6-4.6,5.3c-2,1.8-4.4,3.4-7.4,4.8V78 c5.5,1.5,9.7,4.5,12.5,9c2.6,4.6,4,9.7,4,15.1c-0.1,9-2.8,16.2-8.2,21.4c-5.3,5.5-12,8.2-19.9,8.2h-42.7V27.2z M392.5,41.3v30.1 h22.2c5.6,0,9.7-1.5,12.4-4.5c2.7-2.8,4-6.3,4-10.5c0-4.2-1.3-7.8-4-10.7c-2.6-2.7-6.8-4.2-12.4-4.3H392.5z M392.5,85.4v31.5h23.7 c5.7-0.1,9.9-1.7,12.5-4.8c2.6-3.1,4-6.7,4-10.9c0-4.3-1.3-8-4-11.1c-2.6-3-6.8-4.6-12.5-4.7H392.5z"/><path fill="#C22227" stroke="#C22227" stroke-width="7.342" stroke-miterlimit="10" d="M518.6,108.4h-38.4l-7.8,23.4h-16.3 L493,27.2h12.8l36.8,104.5h-16.2L518.6,108.4z M514.3,94.3l-14.7-45.7h-0.3l-14.7,45.7H514.3z"/><path fill="#C22227" stroke="#C22227" stroke-width="7.342" stroke-miterlimit="10" d="M558.3,27.2h39.6c8.4,0,15.3,2.3,20.6,6.9 c6.4,5.2,9.8,12.6,10,22.3c-0.2,14.2-6.7,23.9-19.6,29l23.4,46.4h-18.2l-21-44.7h-19.6v44.7h-15.3V27.2z M573.6,73h23.3 c5.8-0.1,10.1-1.8,12.9-5.2c2.8-3.1,4.2-6.9,4.2-11.5c-0.1-5.5-1.8-9.4-5.1-11.9c-2.6-2.2-6.4-3.2-11.3-3.2h-24.1V73z"/><path fill="#C22227" stroke="#C22227" stroke-width="7.342" stroke-miterlimit="10" d="M649.8,27.2h39.6c8.4,0,15.3,2.3,20.6,6.9 c6.4,5.2,9.8,12.6,10,22.3c-0.2,14.2-6.7,23.9-19.6,29l23.4,46.4h-18.2l-21-44.7h-19.6v44.7h-15.3V27.2z M665.1,73h23.3 c5.8-0.1,10.1-1.8,13-5.2c2.8-3.1,4.2-6.9,4.2-11.5c-0.1-5.5-1.8-9.4-5.1-11.9c-2.6-2.2-6.4-3.2-11.3-3.2h-24.1V73z"/><path fill="#C22227" stroke="#C22227" stroke-width="7.342" stroke-miterlimit="10" d="M735.9,79.5c0-12.2,0.3-20.3,1-24.4 c0.7-4.1,1.9-7.4,3.4-10c2.5-4.8,6.4-9.1,11.8-12.9c5.3-3.8,12-5.8,19.9-5.9c8.1,0.1,14.8,2.1,20.1,5.9c5.3,3.8,9.2,8.1,11.5,12.9 c1.7,2.5,2.9,5.9,3.5,10c0.6,4.1,0.9,12.2,0.9,24.4c0,12-0.3,20-0.9,24.2c-0.6,4.2-1.8,7.6-3.5,10.1c-2.4,4.8-6.2,9.1-11.5,12.8 c-5.4,3.8-12.1,5.8-20.1,6c-8-0.2-14.6-2.2-19.9-6c-5.4-3.7-9.3-7.9-11.8-12.8c-0.7-1.6-1.4-3.1-2-4.5c-0.6-1.5-1-3.3-1.4-5.6 C736.2,99.5,735.9,91.4,735.9,79.5z M751.2,79.5c0,10.3,0.4,17.3,1.1,20.9c0.7,3.6,2,6.6,4,8.8c1.6,2.2,3.8,3.9,6.4,5.2 c2.6,1.6,5.7,2.4,9.3,2.4c3.7,0,6.8-0.8,9.5-2.4c2.6-1.3,4.6-3.1,6.1-5.2c2-2.3,3.4-5.2,4.1-8.8c0.7-3.6,1-10.6,1-20.9 c0-10.3-0.4-17.3-1-21.1c-0.7-3.5-2.1-6.4-4.1-8.7c-1.5-2.2-3.6-4-6.1-5.4c-2.7-1.4-5.9-2.1-9.5-2.2c-3.6,0.1-6.7,0.8-9.3,2.2 c-2.6,1.4-4.8,3.2-6.4,5.4c-2,2.3-3.3,5.2-4,8.7C751.6,62.2,751.2,69.2,751.2,79.5z"/><path fill="#C22227" stroke="#C22227" stroke-width="7.342" stroke-miterlimit="10" d="M830.1,106.4c8.1,6.9,17.7,10.3,28.8,10.4 c13.2-0.2,19.8-5,20-14.6c0.1-7.8-4.3-12.5-13.2-14.1c-4.1-0.6-8.5-1.2-13.4-1.9c-8.7-1.5-15.3-4.8-19.9-10 c-4.7-5.3-7-11.8-7-19.4c0-9.1,2.9-16.5,8.8-22.1c5.7-5.5,13.8-8.4,24.2-8.5c12.6,0.3,23.5,3.9,32.8,10.8l-8.5,13 c-7.6-5.2-16-7.9-25.1-8.1c-4.7,0-8.7,1.2-11.8,3.7c-3.3,2.5-5,6.3-5.1,11.3c0,3,1.1,5.7,3.4,8.2c2.3,2.5,5.9,4.2,10.9,5.2 c2.8,0.5,6.6,1,11.4,1.6c9.5,1.3,16.5,4.9,21,10.5c4.5,5.6,6.7,12.1,6.7,19.5c-0.5,20-12.4,30.1-35.5,30.4 c-15,0-27.9-4.8-38.7-14.3L830.1,106.4z"/><path fill="#C22227" stroke="#C22227" stroke-width="7.342" stroke-miterlimit="10" d="M909.2,79.5c0-12.2,0.3-20.3,1-24.4 c0.7-4.1,1.9-7.4,3.4-10c2.5-4.8,6.4-9.1,11.8-12.9c5.3-3.8,12-5.8,19.9-5.9c8.1,0.1,14.8,2.1,20.1,5.9c5.3,3.8,9.2,8.1,11.5,12.9 c1.7,2.5,2.9,5.9,3.5,10c0.6,4.1,0.9,12.2,0.9,24.4c0,12-0.3,20-0.9,24.2c-0.6,4.2-1.8,7.6-3.5,10.1c-2.4,4.8-6.2,9.1-11.5,12.8 c-5.4,3.8-12.1,5.8-20.1,6c-8-0.2-14.6-2.2-19.9-6c-5.4-3.7-9.3-7.9-11.8-12.8c-0.7-1.6-1.4-3.1-2-4.5c-0.6-1.5-1-3.3-1.4-5.6 C909.5,99.5,909.2,91.4,909.2,79.5z M924.5,79.5c0,10.3,0.4,17.3,1.1,20.9c0.7,3.6,2,6.6,4,8.8c1.6,2.2,3.8,3.9,6.4,5.2 c2.6,1.6,5.7,2.4,9.3,2.4c3.7,0,6.8-0.8,9.5-2.4c2.6-1.3,4.6-3.1,6.1-5.2c2-2.3,3.4-5.2,4.1-8.8c0.7-3.6,1-10.6,1-20.9 c0-10.3-0.4-17.3-1-21.1c-0.7-3.5-2.1-6.4-4.1-8.7c-1.5-2.2-3.6-4-6.1-5.4c-2.7-1.4-5.9-2.1-9.5-2.2c-3.6,0.1-6.7,0.8-9.3,2.2 c-2.6,1.4-4.8,3.2-6.4,5.4c-2,2.3-3.3,5.2-4,8.7C924.9,62.2,924.5,69.2,924.5,79.5z"/></g></g></svg>